# xmcd CD database file
#
# Track frame offsets:
#	150
#	17444
#	40685
#	49587
#	59911
#	70477
#	85871
#	95089
#	108123
#	126601
#	156126
#	165899
#	169190
#	189090
#	195326
#	215510
#	233693
#	242405
#	254748
#	268774
#	290323
#	311536
#	321194
#	342612
#
# Disc length: 4788 seconds
#
# Revision: 0
# Processed by: cddbd v1.5.2PL0 Copyright (c) Steve Scherf et al.
# Submitted via: CDex 1.70beta2
#
DISCID=5512b218
DTITLE=Michel Redolfi - Nausicaa
DYEAR=2004
DGENRE=New Age
TTITLE0=Dans les profondeurs (a)
TTITLE1=Entree atlantide
TTITLE2=Sourire de poseidon
TTITLE3=Dans les profondeurs (b)
TTITLE4=Interlude
TTITLE5=Physalies
TTITLE6=Dans les profondeurs (c)
TTITLE7=Traversee des abysses
TTITLE8=Aquarium-diamant
TTITLE9=Lagon
TTITLE10=Grand nausicaa
TTITLE11=Sonal celeste
TTITLE12=Buzentron
TTITLE13=Le bleu du silence
TTITLE14=Sous le lagon
TTITLE15=Plancton
TTITLE16=Reflets
TTITLE17=Espace corail
TTITLE18=Observatoire lions de mer
TTITLE19=Danse des raies
TTITLE20=Anneau du futur
TTITLE21=Immersion
TTITLE22=Remontee du temps
TTITLE23=Dans les profondeurs (d)
EXTD=YEAR: 2004
EXTT0=
EXTT1=
EXTT2=
EXTT3=
EXTT4=
EXTT5=
EXTT6=
EXTT7=
EXTT8=
EXTT9=
EXTT10=
EXTT11=
EXTT12=
EXTT13=
EXTT14=
EXTT15=
EXTT16=
EXTT17=
EXTT18=
EXTT19=
EXTT20=
EXTT21=
EXTT22=
EXTT23=
PLAYORDER=
